<?xml version="1.0" encoding="utf-8"?>
<!-- Generator: Adobe Illustrator 22.1.0, SVG Export Plug-In . SVG Version: 6.00 Build 0)  -->
<svg version="1.1" id="Layer_1" xmlns="http://www.w3.org/2000/svg" xmlns:xlink="http://www.w3.org/1999/xlink" x="0px" y="0px"
	 viewBox="0 0 1749 512" style="enable-background:new 0 0 1749 512;" xml:space="preserve">
<style type="text/css">
	.st0{fill:#0FB9A3;}
	.st1{fill:#FFFFFF;}
</style>
<g>
	<path class="st0" d="M472,484H40c-6.6,0-12-5.4-12-12V40c0-6.6,5.4-12,12-12h432c6.6,0,12,5.4,12,12v432
		C484,478.6,478.6,484,472,484z"/>
	<g>
		<path class="st1" d="M72.9,260.2c0-53.6,0.1-107.2-0.2-160.7c0-6.9,1.5-8.6,9.5-8.2c19.2,1.2,38.6,1.5,57.8,0.1
			c7.7-0.6,11.8,0.8,15.5,7.2c28.3,47.9,57.1,95.4,85.5,143.2c3.1,5.1,6.2,7.2,12.4,7.2c27.7-0.4,55.5,0,83.2-0.3
			c6.2-0.1,8.7,1.2,8.5,8c-0.3,16.1,0.1,16.1-16.1,16.1c-25.2,0-50.5,0.2-75.7-0.1c-6.1-0.1-7.7,1.5-7.7,7.7
			c0.3,46.4-0.1,92.8,0.3,139.2c0.1,8-2.4,9.6-9.9,9.6c-51.4-0.3-102.8-0.3-154.2,0c-7.2,0-9.3-1.6-9.2-9.1
			C73,366.7,72.9,313.4,72.9,260.2z"/>
		<path class="st1" d="M355.6,217.1c-9.2,18.9-48.6,17.9-51.7,18c-9.7,0.4-12.4-2-12.4-11.9c0-9.7,2.7-12.8,11.9-11.3
			c19.7,3.3,34.8-3.1,47.9-18.9c6.6-7.9,7-15.4,6.5-23.9c-0.4-7.5,2.6-8.5,12.3-7.6c19.2,1.8,38.6,1.6,57.9-0.1
			c7.8-0.7,9.9,0.5,9.9,6.7c-0.2,54.2-0.2,108.4,0,162.6c0,5.9-1.7,7.2-7.4,7.2c-29.9-0.3-59.8,0.1-89.7-0.3
			c-6.4-0.1-8.3,1.4-8.2,8.1c0.4,24.6-0.2,49.2,0.4,73.8c0.2,8.2-2.4,10-9.9,9.4c-9-0.7-18.1-0.4-27.1-0.1c-5.8,0.2-8.1-1.1-8-7.6
			c0.3-40.8,0.3-81.6,0-122.4c0-5.8,1.6-7.4,7.3-7.3c18.7,0.4,37.4,0.2,56.1,0.1c2.8,0,6.6,1.5,6.5-3.9c-0.1-22.9,0-45.9,0-68.8
			C357.2,218.4,356.4,217.8,355.6,217.1z"/>
		<path class="st1" d="M403.5,156.5c-20.9,0.7-38.1-16.1-38-36.7c0.1-20.3,16.8-36.9,36.9-36.8c20.6,0.1,37.1,17,36.6,37.6
			C438.6,140,422.9,155.9,403.5,156.5z"/>
	</g>
	<g>
		<path class="st1" d="M660,160.9v27.1h-89.1v64.4h73.5v25.9h-73.5v90.3h-33.5V160.9H660z"/>
		<path class="st1" d="M676.5,145.3c3.9-3.7,9.1-5.6,15.6-5.6c6.5,0,11.7,1.9,15.7,5.6c4,3.7,6,8.4,6,14.1c0,5.7-2,10.3-6,13.8
			c-4,3.5-9.3,5.3-15.7,5.3c-6.5,0-11.7-1.8-15.6-5.3c-3.9-3.5-5.9-8.1-5.9-13.8C670.6,153.7,672.5,149,676.5,145.3z M708.8,206.5
			v162.1h-33.5V206.5H708.8z"/>
		<path class="st1" d="M837.4,215.3c10.4,7.3,17.7,16.9,22.1,28.8v-37.7H893v163.9c0,15.1-3.1,28.5-9.3,40.2
			c-6.2,11.7-15.1,20.8-26.6,27.5c-11.6,6.7-25.3,10-41.2,10c-22.8,0-41.1-5.4-55.2-16.2c-14-10.8-22.8-25.4-26.3-43.8h33.2
			c2.7,9.6,8,17.1,15.9,22.5c7.8,5.4,17.8,8.1,30,8.1c13.3,0,24.3-4.1,33-12.4c8.6-8.2,12.9-20.2,12.9-35.9v-39.4
			c-4.3,12-11.7,21.6-22.1,28.8c-10.4,7.3-22.9,10.9-37.7,10.9c-14.1,0-26.7-3.3-37.8-10c-11.1-6.7-19.8-16.3-26-28.8
			c-6.3-12.5-9.4-27.4-9.4-44.4c0-16.9,3.1-31.6,9.4-44.1c6.3-12.5,15-22.2,26-28.8c11.1-6.7,23.7-10,37.8-10
			C814.4,204.4,827,208,837.4,215.3z M774.3,248.1c-8.9,9.5-13.4,22.6-13.4,39.3c0,16.7,4.5,29.8,13.4,39.3
			c8.9,9.5,20.8,14.3,35.7,14.3c9.4,0,17.8-2.2,25.3-6.6c7.5-4.4,13.3-10.6,17.7-18.7c4.3-8,6.5-17.5,6.5-28.2
			c0-10.6-2.2-20-6.5-28.1c-4.3-8.1-10.2-14.4-17.7-18.8c-7.5-4.4-15.9-6.6-25.3-6.6C795.1,233.8,783.2,238.6,774.3,248.1z"/>
		<path class="st1" d="M1054.5,222.1c11.4,12.2,17.1,29.5,17.1,52.1v94.4H1038v-90.9c0-14.5-3.7-25.7-11.2-33.7
			c-7.5-7.9-17.7-11.9-30.6-11.9c-13.3,0-24,4.3-32.1,12.8c-8,8.5-12.1,21-12.1,37.5v86.2h-33.5V150.9h33.5v91.2
			c4.3-12.2,11.6-21.6,21.8-28.2c10.2-6.7,22-10,35.3-10C1028,203.8,1043.1,209.9,1054.5,222.1z"/>
		<path class="st1" d="M1177.5,339.4v29.1h-20.6c-17.3,0-30.4-4.2-39.3-12.5c-8.9-8.3-13.4-22.2-13.4-41.6V235H1081v-28.5h23.2
			v-40.3h33.8v40.3h39.1V235H1138v80c0,9.2,1.7,15.6,5.1,19.1c3.4,3.5,9.5,5.3,18.1,5.3H1177.5z"/>
		<path class="st1" d="M1359.3,160.9v207.7h-33.8v-93.3h-97.7v93.3h-33.5V160.9h33.5v87.1h97.7v-87.1H1359.3z"/>
		<path class="st1" d="M1534.6,206.5v162.1h-33.8v-35.3c-4.1,12-11.3,21.2-21.5,27.8c-10.2,6.6-22.1,9.9-35.6,9.9
			c-18.8,0-33.9-6.1-45.3-18.2c-11.4-12.2-17.1-29.5-17.1-52.1v-94.1h33.5v90.6c0,14.7,3.7,26,11.2,34c7.5,7.9,17.7,11.9,30.6,11.9
			c13.3,0,24-4.3,32.1-12.9c8-8.6,12.1-21.2,12.1-37.7v-85.9H1534.6z"/>
		<path class="st1" d="M1691,214.4c11.1,6.7,19.8,16.3,26,28.8c6.3,12.6,9.4,27.3,9.4,44.1c0,17.1-3.1,31.9-9.4,44.4
			c-6.3,12.6-15,22.2-26,28.8c-11.1,6.7-23.7,10-37.8,10c-14.7,0-27.3-3.6-37.7-10.9c-10.4-7.3-17.7-16.9-21.8-28.8v37.7h-33.5
			V150.9h33.5v93.3c4.1-12,11.4-21.6,21.8-28.8c10.4-7.3,22.9-10.9,37.7-10.9C1667.3,204.4,1679.9,207.7,1691,214.4z M1617.6,240.4
			c-7.5,4.4-13.3,10.7-17.7,18.8c-4.3,8.1-6.5,17.5-6.5,28.1c0,10.8,2.2,20.2,6.5,28.2c4.3,8,10.2,14.3,17.7,18.7
			c7.5,4.4,15.9,6.6,25.3,6.6c14.9,0,26.9-4.8,35.9-14.3c9-9.5,13.5-22.6,13.5-39.3c0-16.5-4.5-29.5-13.5-39.1
			c-9-9.6-21-14.4-35.9-14.4C1633.5,233.8,1625,236,1617.6,240.4z"/>
	</g>
</g>
</svg>
