<?xml version="1.0" encoding="utf-8"?>
<!-- Generator: Adobe Illustrator 22.1.0, SVG Export Plug-In . SVG Version: 6.00 Build 0)  -->
<svg version="1.1" id="Layer_1" xmlns="http://www.w3.org/2000/svg" xmlns:xlink="http://www.w3.org/1999/xlink" x="0px" y="0px"
	 viewBox="0 0 512 512" style="enable-background:new 0 0 512 512;" xml:space="preserve">
<style type="text/css">
	.st0{fill:#0FB9A3;}
	.st1{fill:#FFFFFF;}
</style>
<path class="st0" d="M472,484H40c-6.6,0-12-5.4-12-12V40c0-6.6,5.4-12,12-12h432c6.6,0,12,5.4,12,12v432
	C484,478.6,478.6,484,472,484z"/>
<g>
	<path class="st1" d="M72.9,260.2c0-53.6,0.1-107.2-0.2-160.7c0-6.9,1.5-8.6,9.5-8.2c19.2,1.2,38.6,1.5,57.8,0.1
		c7.7-0.6,11.8,0.8,15.5,7.2c28.3,47.9,57.1,95.4,85.5,143.2c3.1,5.1,6.2,7.2,12.4,7.2c27.7-0.4,55.5,0,83.2-0.3
		c6.2-0.1,8.7,1.2,8.5,8c-0.3,16.1,0.1,16.1-16.1,16.1c-25.2,0-50.5,0.2-75.7-0.1c-6.1-0.1-7.7,1.5-7.7,7.7
		c0.3,46.4-0.1,92.8,0.3,139.2c0.1,8-2.4,9.6-9.9,9.6c-51.4-0.3-102.8-0.3-154.2,0c-7.2,0-9.3-1.6-9.2-9.1
		C73,366.7,72.9,313.4,72.9,260.2z"/>
	<path class="st1" d="M355.6,217.1c-9.2,18.9-48.6,17.9-51.7,18c-9.7,0.4-12.4-2-12.4-11.9c0-9.7,2.7-12.8,11.9-11.3
		c19.7,3.3,34.8-3.1,47.9-18.9c6.6-7.9,7-15.4,6.5-23.9c-0.4-7.5,2.6-8.5,12.3-7.6c19.2,1.8,38.6,1.6,57.9-0.1
		c7.8-0.7,9.9,0.5,9.9,6.7c-0.2,54.2-0.2,108.4,0,162.6c0,5.9-1.7,7.2-7.4,7.2c-29.9-0.3-59.8,0.1-89.7-0.3
		c-6.4-0.1-8.3,1.4-8.2,8.1c0.4,24.6-0.2,49.2,0.4,73.8c0.2,8.2-2.4,10-9.9,9.4c-9-0.7-18.1-0.4-27.1-0.1c-5.8,0.2-8.1-1.1-8-7.6
		c0.3-40.8,0.3-81.6,0-122.4c0-5.8,1.6-7.4,7.3-7.3c18.7,0.4,37.4,0.2,56.1,0.1c2.8,0,6.6,1.5,6.5-3.9c-0.1-22.9,0-45.9,0-68.8
		C357.2,218.4,356.4,217.8,355.6,217.1z"/>
	<path class="st1" d="M403.5,156.5c-20.9,0.7-38.1-16.1-38-36.7c0.1-20.3,16.8-36.9,36.9-36.8c20.6,0.1,37.1,17,36.6,37.6
		C438.6,140,422.9,155.9,403.5,156.5z"/>
</g>
</svg>
